<svg width="106" height="60" viewBox="0 0 106 60" fill="none" xmlns="http://www.w3.org/2000/svg">
<path d="M53.3819 59.0923C49.7812 59.2827 46.1712 58.9878 42.6495 58.2157C35.9573 56.586 29.5692 53.9 23.7268 50.2591C15.0987 44.9098 7.31346 38.3135 0.625234 30.6854C-0.240069 29.7218 -0.193124 29.6214 0.678887 28.6444C4.04015 24.8572 7.66221 21.3086 11.5187 18.0244C18.6356 12.0018 26.3362 6.88251 35.1099 3.50982C39.3046 1.82225 43.7213 0.747184 48.2236 0.317815C50.7014 0.0340711 53.1973 -0.0598782 55.6894 0.0367685C59.5598 0.310943 63.3859 1.02717 67.0926 2.17145C75.2091 4.71435 82.4736 8.79639 89.282 13.8086C94.4336 17.6029 99.0016 22.0195 103.496 26.5231C104.24 27.2659 104.837 28.1157 105.589 28.8786C105.716 28.9754 105.82 29.1003 105.891 29.2437C105.963 29.3871 106 29.545 106 29.7051C106 29.8652 105.963 30.0231 105.891 30.1664C105.82 30.3098 105.716 30.4348 105.589 30.5315C102.51 33.6298 99.5516 36.8553 96.3319 39.8064C90.5333 45.1783 84.005 49.7086 76.9397 53.2637C72.2793 55.7177 67.2785 57.4656 62.102 58.4499C59.2445 58.9317 56.3267 59.0656 53.4423 59.36L53.3819 59.0923ZM22.8852 41.7683C22.8852 41.7683 23.5843 42.4846 24.0823 42.7508C29.6927 46.6419 35.9163 49.5687 42.4952 51.4101C48.7772 53.1447 55.39 53.3147 61.7532 51.9053C70.9898 49.8977 78.9587 45.267 86.3909 39.619C86.5586 39.4919 89.6652 37.0099 89.6652 37.0099C89.6652 37.0099 89.9171 36.745 90.1406 36.5809C92.4145 34.473 94.6683 32.3517 96.949 30.2571C97.4185 29.8289 97.2978 29.5344 96.9087 29.1798C94.3531 26.8108 91.8108 24.4285 89.2484 22.0663C88.8926 21.792 88.5589 21.4955 88.0752 21.1485L87.1489 20.4001C86.9611 20.2395 86.78 20.0454 86.5653 19.8915C84.6402 18.5531 82.7486 17.1211 80.7765 15.8429C73.6529 11.2389 66.0194 7.87961 57.4938 6.90929C53.2771 6.40748 49.0073 6.5746 44.8429 7.40448C38.1352 8.74285 32.0579 11.5668 26.3227 15.1871C20.081 19.182 14.3076 23.862 9.11057 29.1396C8.7014 29.5545 8.68128 29.8423 9.11057 30.2237C12.4779 33.2172 15.8474 36.2129 19.2192 39.2108C19.5282 39.4411 19.8532 39.649 20.1918 39.8332L22.8852 41.7683Z" fill="white"/>
</svg>
