<svg width="30" height="29" viewBox="0 0 30 29" fill="none" xmlns="http://www.w3.org/2000/svg">
<path opacity="0.3" d="M5.79858 5.9418C5.72567 5.98042 5.67109 6.04641 5.64685 6.12527C5.6226 6.20413 5.63068 6.28939 5.6693 6.3623L8.58268 11.8623C8.69854 12.081 8.72276 12.3368 8.65003 12.5734C8.57729 12.8099 8.41356 13.0079 8.19484 13.1238L2.69704 16.036C2.62414 16.0746 2.56956 16.1406 2.54532 16.2195C2.52107 16.2984 2.52915 16.3836 2.56777 16.4565L6.35365 23.6037C6.43403 23.7554 6.62241 23.8133 6.77415 23.7329L12.272 20.8207C12.4907 20.7049 12.7464 20.6806 12.983 20.7534C13.2196 20.8261 13.4176 20.9898 13.5335 21.2086L16.4463 26.7075C16.5266 26.8592 16.715 26.9171 16.8668 26.8367L24.0139 23.0509C24.0868 23.0122 24.1414 22.9462 24.1656 22.8674C24.1899 22.7885 24.1818 22.7033 24.1432 22.6304L21.2304 17.1314C21.1145 16.9127 21.0903 16.657 21.163 16.4204C21.2358 16.1838 21.3995 15.9858 21.6182 15.8699L27.116 12.9577C27.1889 12.9191 27.2435 12.8531 27.2677 12.7743C27.292 12.6954 27.2839 12.6101 27.2453 12.5372L23.4594 5.39009C23.4208 5.31718 23.3548 5.2626 23.2759 5.23836C23.1971 5.21411 23.1118 5.22219 23.0389 5.26081L17.5411 8.17303C17.3224 8.28888 17.0666 8.31311 16.83 8.24037C16.5935 8.16764 16.3955 8.00391 16.2796 7.78519L13.3668 2.28629C13.3282 2.21339 13.2622 2.15881 13.1833 2.13456C13.1045 2.11032 13.0192 2.11839 12.9463 2.15701L5.79858 5.9418ZM4.01996 7.23596C3.45732 6.17379 3.86274 4.8551 4.92491 4.29246L12.0721 0.506572C13.1342 -0.0560685 14.4529 0.349351 15.0156 1.41153L17.4921 6.08685L22.1652 3.61147C23.2274 3.04883 24.5455 3.45315 25.1087 4.51642L28.8946 11.6636C29.165 12.1739 29.2215 12.7707 29.0518 13.3227C28.8821 13.8748 28.5 14.3367 27.9897 14.6071L23.3165 17.0825L25.7925 21.7567C26.0628 22.267 26.1194 22.8638 25.9497 23.4159C25.7799 23.9679 25.3979 24.4299 24.8876 24.7002L17.7404 28.4861C17.2301 28.7564 16.6333 28.8129 16.0812 28.6432C15.5292 28.4735 15.0672 28.0915 14.7969 27.5811L12.3209 22.9069L7.64782 25.3823C7.13748 25.6526 6.54066 25.7091 5.98864 25.5394C5.43663 25.3697 4.97464 24.9877 4.70431 24.4773L0.918425 17.3302C0.355784 16.268 0.761203 14.9493 1.82338 14.3867L6.49651 11.9113L4.01996 7.23596Z" fill="#27BBA2"/>
</svg>
